<svg xmlns="http://www.w3.org/2000/svg" viewBox="0 0 364.66 251.26"><defs><style>.cls-1{fill:#fff;}</style></defs><g id="Layer_2" data-name="Layer 2"><g id="Layer_1-2" data-name="Layer 1"><path class="cls-1" d="M121.78,178.49c1-1.32,2.1-2.56,3.45-4.18.17.91.22,1.36.33,1.79a19.64,19.64,0,0,0,1.43,4,13.74,13.74,0,0,0,3.48,4.52,14.8,14.8,0,0,0,4.22,2.44,22.43,22.43,0,0,0,9.11,1.26,45,45,0,0,0,20.8-5.79c6-3.45,14-8.7,18.8-11.75l.47-.29h-.31a13,13,0,0,1-7.23-2.36,9.81,9.81,0,0,1-2.74-2.95,7.63,7.63,0,0,1-1.09-3.95,1.93,1.93,0,0,1,0-.24,67.84,67.84,0,0,1-4.89,5.45c-6.16,6.12-10.89,8.47-12,9a36.93,36.93,0,0,1-8.11,2.81c-1.94-1.94-1.24-3.89-.83-5.82a128.12,128.12,0,0,1,7-22.86c4-9.46,7.87-19,11.54-28.55a63.26,63.26,0,0,0,3-11.28,8.12,8.12,0,0,0,.1-2.66c-.37-2.71-2.39-4.26-5.81-4.73-6.22-.87-10.58,2-13.84,6.89-5.15,7.76-8.38,16.49-12.34,24.86-3,6.29-5.15,12.94-8.93,18.89-4.67,7.32-9.35,14.61-15.38,20.9a29.32,29.32,0,0,1-2.4,2.49,6.07,6.07,0,0,1-2.85,1.36,14,14,0,0,1-.43-2.54,67.81,67.81,0,0,1,.35-8.07c1.23-8.83,4.2-17.23,7.1-25.61,1-2.82,2.43-5.46,3.43-8.27,2.13-5.92,4.14-11.87,6.09-17.83a5.58,5.58,0,0,0,.26-2.3,4.8,4.8,0,0,0-3.93-4.22,6.82,6.82,0,0,0-3.48.37,10.88,10.88,0,0,0-5.5,4.67l-.06-.11-1.23,1.41C101.75,124,93.65,132.26,84,139q-1.46,1-2.82,2.16c-7.8,6.52-17,9.86-26.85,11.6a18.64,18.64,0,0,1-3.64-.13c.81-4.29,2.56-7.86,3.57-11.65.73-2.78,2.45-4.23,4.88-5.47,4.93-2.5,9.81-5.1,14.54-8,8.81-5.3,17.23-11.17,24.35-18.68a38.76,38.76,0,0,0,9.17-15,23.25,23.25,0,0,0,1-9.93,12,12,0,0,0-7.34-10,18.23,18.23,0,0,0-5.08-1.49c-12-1.69-23.2.74-33.1,7.93a63.73,63.73,0,0,0-8.83,7.84,106.47,106.47,0,0,0-18.05,26.94A202.94,202.94,0,0,0,24.89,142a10.24,10.24,0,0,1-5.47,6.48A50.15,50.15,0,0,0,5.33,159.11a34.83,34.83,0,0,0-4.19,5.68,6.64,6.64,0,0,0-.25,7A7.52,7.52,0,0,0,3.48,171a31.58,31.58,0,0,0,2.7-3.14,54.44,54.44,0,0,1,13.43-11.35c.21.43.37.6.35.75a25,25,0,0,1-.42,2.88,172.16,172.16,0,0,0-3.92,55.28c.71,8.35,2.42,16.43,6.84,23.66a43.47,43.47,0,0,0,6.21,7.83,13.93,13.93,0,0,0,9.5,4.33c12.53.38,23.41-2.93,30.81-14a108.28,108.28,0,0,0,10.84-21,73.3,73.3,0,0,0,4.38-36.07c-1.21-9.73-4.6-18.38-13.5-23.86-.52-.32-.76-1.11-1.26-1.89,7.28-1.92,14.21-3.64,20.46-7.11,1.87-1,3.72-2.11,5.57-3.2a100.75,100.75,0,0,0-7,21c0,.14-.07.3-.11.45a24,24,0,0,0-.1,9.54,25,25,0,0,0,1.52,5.31,44.43,44.43,0,0,0,3.17,3.89c2,2,4.71,2.49,7.44,2.73C109,187.92,116.31,185.52,121.78,178.49Zm12.83-18.1A77.33,77.33,0,0,1,138,145.33,138.78,138.78,0,0,1,143.52,131a116.56,116.56,0,0,1,7.1-13.56c-1.57,4.86-3.26,9.65-4.93,14.42-.81,2.4-1.68,4.77-2.47,7.17s-1.63,4.77-2.37,7.17-1.51,4.8-2.17,7.21-1.26,4.84-1.76,7.27a32.57,32.57,0,0,0-.69,7.33,9.41,9.41,0,0,0,.75,3.49,5.44,5.44,0,0,0,1,1.45,5,5,0,0,0,1.57,1,5.35,5.35,0,0,1-1.85-.63,6,6,0,0,1-1.47-1.38,9.91,9.91,0,0,1-1.5-3.73A27.22,27.22,0,0,1,134.61,160.39ZM61,123.61c4.53-10.9,9.12-21.77,15.26-31.89,2.66-4.37,5.52-8.64,9.63-11.84,1.52-1.19,3.2-2.19,4.83-3.29,4.47,2.5,5.4,6.39,5.16,10.69A20.09,20.09,0,0,1,93,96.79a71.66,71.66,0,0,1-6.13,8.63c-6.84,8-15.27,14.13-24.2,19.58a6.61,6.61,0,0,1-1.69.42A5.64,5.64,0,0,1,61,123.61ZM38,245.34A19.41,19.41,0,0,1,35.65,244l-1.13-.76-1.07-.84a26.1,26.1,0,0,1-6.62-8.58c-3.18-6.59-4.37-13.89-4.85-21a162.56,162.56,0,0,1,.29-21.52,185.93,185.93,0,0,1,2.46-21.37,181.64,181.64,0,0,1,12.62-41.07c1.49-3.26,3-6.53,4.63-9.69s3.35-6.33,5.16-9.42A180.84,180.84,0,0,1,59.12,92,229.83,229.83,0,0,0,39.5,129.75a207.53,207.53,0,0,0-7,20.05,187.88,187.88,0,0,0-4.85,20.64c-.64,3.47-1.18,7-1.59,10.47s-.69,7-1,10.58a181.17,181.17,0,0,0-.78,21.19,79.92,79.92,0,0,0,1,10.49,43.63,43.63,0,0,0,2.84,10.06,24.87,24.87,0,0,0,5.82,8.6A22.41,22.41,0,0,0,43.12,247,23.24,23.24,0,0,1,38,245.34Zm30.65-41.45A98.89,98.89,0,0,1,54.35,238c-1.39,2.11-3.15,4-5.2,6.54a22.18,22.18,0,0,1-7.4-11.22,51.24,51.24,0,0,1-2.19-15.13,185.32,185.32,0,0,1,5-43.89c.92-4,2-8,3-12A33.23,33.23,0,0,1,49,158.7c2.86-1,5,.17,7,1.38a23.63,23.63,0,0,1,10.58,13A56.42,56.42,0,0,1,68.66,203.89Zm29.08-25.54A6,6,0,0,1,96.27,177a9.91,9.91,0,0,1-1.5-3.73,27.22,27.22,0,0,1-.16-7.85A77.33,77.33,0,0,1,98,150.33q1.64-5,3.61-9.84.91-2.25,1.92-4.45a116.56,116.56,0,0,1,7.1-13.56c-1.57,4.86-3.26,9.65-4.93,14.42-.16.48-.32.95-.49,1.43-.66,1.91-1.35,3.82-2,5.74-.82,2.38-1.63,4.77-2.37,7.17s-1.51,4.8-2.17,7.21-1.26,4.84-1.76,7.27a32.57,32.57,0,0,0-.69,7.33,9.41,9.41,0,0,0,.75,3.49A5.44,5.44,0,0,0,98,178a5,5,0,0,0,1.57,1A5.35,5.35,0,0,1,97.74,178.35Z"/><path class="cls-1" d="M175.78,118.3a13.1,13.1,0,0,0,1.37.92s2.81,1.83,4.67,1.18,3.26-1.61,4.15-4.5c0,0,0,0,0,0a9.84,9.84,0,0,0,0-5c-.93-3.52,0-7,.93-10.43l17.19-.62c-.46,1.18-.81,2.24-1.28,3.24-.07.17-.15.32-.23.49-2.09,4.49-4.27,8.93-6.29,13.43-1.94,4.33-3.54,8.82-5.58,13.09q-2.26,4.77-4.6,9.49l-.5.89c-2,3.61-5.78,10.24-9,15-.52.78-1,1.52-1.55,2.22h0a6.89,6.89,0,0,0-.22,3.38,7.58,7.58,0,0,0,3.24,4.65,15.85,15.85,0,0,0,5.76,2.45,22.63,22.63,0,0,0,3.33.48c3.79-1.92,7.07-2.89,8.21-2.89,5.24,0,10.48-.47,15.71-.15,5.45.34,11.81-2.15,24.53-7.15,3.72-1.46,8.41-3.31,12.89-5.29a16.88,16.88,0,0,1-3.2-1.23,12,12,0,0,1-2.35-1.57,11,11,0,0,1-1-1c-.31-.36-.58-.7-.86-1.07a10.32,10.32,0,0,1-2.1-5.21,7.3,7.3,0,0,1,0-1.14c-1,.9-2.19,1.82-3.87,3.17a59.8,59.8,0,0,1-8,4.9,113.72,113.72,0,0,1-14.45,6.46,15.19,15.19,0,0,1-8,1,17.12,17.12,0,0,1-4.24-1l1-2c2-4,4.44-8,6-12.2,3.31-8.69,6.1-17.58,9.24-26.35,1.67-4.65,3.58-9.21,5.46-13.78,2.37-5.79,4.88-11.52,7.22-17.34a8.12,8.12,0,0,0,.49-1.63c.33-2.08-.81-3.2-3.52-3.58-5.41-.77-10.05.6-13.17,5.37-2.91,4.47-7.39,5.94-12.24,6.14-4,.15-8-.57-12-.77-5.16-.26-10.28-.15-15,2.36a7.34,7.34,0,0,0-3.47,3.94C167.8,103.06,168.79,113.12,175.78,118.3Zm34.78-15.68c-1.1,4.13-2.43,8.16-3.8,12.16-.66,2-1.42,4-2.1,6l-2.18,5.94L198,138.51c-.4,1-.7,2-1.08,3s-.72,2-1,3l-.52,1.5c-.14.5-.28,1-.43,1.5a26.15,26.15,0,0,0-.7,3.09,15,15,0,0,1-.12-3.22c0-.53.07-1.07.11-1.61l.22-1.6a63.81,63.81,0,0,1,1.31-6.29,118.53,118.53,0,0,1,3.87-12.16c1.5-4,3.12-7.9,4.93-11.75A109.48,109.48,0,0,1,210.56,102.62Z"/><path class="cls-1" d="M303.09,133.13c2.33-6,4.34-12.16,6.16-18.36a17.21,17.21,0,0,0,.28-5.71c0-.25,0-.51,0-.76a2.79,2.79,0,0,0-1-1.92c-2.83-2-8.34-.58-10,2.55-1,1.94-1.88,3.94-2.94,5.85-3.1,5.64-6.12,11.34-9.47,16.84a19.8,19.8,0,0,1-6.52,7.07,5.81,5.81,0,0,1-2.85,1c-2.53-.11-5-.3-7.62-.5l-5-.4,1-2c2-4.05,4.44-8,6-12.21,3.31-8.69,6.1-17.58,9.24-26.35,1.67-4.64,3.58-9.2,5.46-13.78C288.19,78.71,290.7,73,293,67.17a7.75,7.75,0,0,0,.49-1.64c.33-2.08-.81-3.19-3.52-3.58-5.41-.77-10.05.61-13.17,5.37-2.91,4.47-7.39,5.94-12.24,6.14-4,.15-8-.57-12-.77-5.16-.26-10.28-.15-15,2.37A7.3,7.3,0,0,0,234.14,79c-2.63,6.42-1.64,16.47,5.35,21.66a13,13,0,0,0,1.37.91s2.81,1.83,4.67,1.18,3.26-1.6,4.15-4.5c0,0,0,0,0,0a9.84,9.84,0,0,0,0-5c-.93-3.52,0-7,.93-10.42,5.72-.22,11.27-.41,17.19-.63-.46,1.19-.81,2.24-1.28,3.24-.07.17-.15.33-.23.5-2.09,4.48-4.27,8.92-6.29,13.42-1.94,4.33-3.54,8.82-5.58,13.09-3.67,7.71-7.44,15.35-11.39,22.91-.52,1-1,2-1.56,3v0a11.84,11.84,0,0,0-.28,2.18,7.09,7.09,0,0,0,.18,2.17,9.41,9.41,0,0,0,2,3.81l.74.85a10.42,10.42,0,0,0,.77.72,10.73,10.73,0,0,0,1.81,1.2,20.37,20.37,0,0,0,6.11,1.9c2.07-1,4-2,5.63-3,.22,0,.43-.06.66-.06,5.24,0,10.48-.14,15.71-.15A37.64,37.64,0,0,0,294,143.29,19.94,19.94,0,0,0,303.09,133.13ZM260,126.47c-.38,1-.72,2-1,3l-.52,1.5c-.14.5-.28,1-.43,1.5a26.15,26.15,0,0,0-.7,3.09,15,15,0,0,1-.12-3.22c0-.53.07-1.07.11-1.61l.22-1.6a63.81,63.81,0,0,1,1.31-6.29,118.53,118.53,0,0,1,3.87-12.16c1.5-4,3.12-7.9,4.93-11.75a109.48,109.48,0,0,1,6-11.28c-1.1,4.13-2.43,8.16-3.8,12.16-.66,2-1.42,4-2.1,6l-2.18,5.94L261,123.51C260.64,124.49,260.34,125.49,260,126.47Z"/><path class="cls-1" d="M252.63,164.52A39.3,39.3,0,0,0,241.31,166a68.61,68.61,0,0,0-17.41,7.68A223.79,223.79,0,0,0,201,189a7,7,0,0,1-4.92,1.58c-2.92-.13-5.85,0-8.78,0a231.11,231.11,0,0,0-34.28,2.09,132.55,132.55,0,0,0-16.48,3.22A158,158,0,0,0,119.7,202a59.15,59.15,0,0,0-14.7,8.79,58.52,58.52,0,0,0-4.46,4.17,5.24,5.24,0,0,0-.8,1.51,1.88,1.88,0,0,0,2.47.84c1.05-.45,2.07-1,3.07-1.55a105.56,105.56,0,0,1,14.16-6.65c6.79-2.59,13.64-5,20.82-6.27,12.67-2.16,25.39-4.13,38.27-4.62,3.26-.13,6.53-.65,10.12-.1a9,9,0,0,1-1,1.34c-4.78,4.2-9.6,8.36-14.36,12.58a5,5,0,0,1-3.48,1.22c-3.69.1-7.39.16-11.06.51a32.79,32.79,0,0,0-12.6,4.2,8.08,8.08,0,0,0-3.68,3.74c-1.19,2.61-.84,4.68,1.28,6.55,2.89,2.56,6.18,4,10.15,3.37a27.79,27.79,0,0,0,3.72-.84,58.12,58.12,0,0,0,15.91-8.14c2.19-1.54,4.31-3.16,6.44-4.78a3.18,3.18,0,0,1,2.46-.76c3.41.42,6.83.75,10.24,1.18.53.07,1.29,0,1.52,1.1-7,5.91-14.9,10.83-21.68,18.47a13.07,13.07,0,0,0,5.58-1.17,65,65,0,0,0,11.43-6.12c4.23-2.83,8.44-5.7,12.67-8.54.83-.56,1.71-1,2.24-1.36,5.18.76,10,1.52,14.75,2.16a32.73,32.73,0,0,0,13.24-1,10.93,10.93,0,0,0,5.73-3.6c1.59-2,2-4.16.66-6.38-2.85-4.66-6.68-8-12.38-8.55a24.06,24.06,0,0,0-10.5,1.54,50,50,0,0,0-14.56,8.25l-2.78,2.22c-3.72-.43-7.13-.81-10.54-1.22-.68-.08-1.52,0-1.88-1.14,5.8-5,11.77-10,17.81-14.83a4.63,4.63,0,0,1,2.44-.85c6.85-.51,13.72-.91,20.57-1.41a113.71,113.71,0,0,0,22.2-3.74,57.78,57.78,0,0,0,11.43-4.25,15.87,15.87,0,0,0,6.61-6.17,8.37,8.37,0,0,0,.21-8.71C264.23,167,259,164.67,252.63,164.52ZM166.46,217.9A73.48,73.48,0,0,1,154.1,226a14.12,14.12,0,0,1-7.25,1.7,5.93,5.93,0,0,1,2.09-5.25,18,18,0,0,1,6.47-3.83,52,52,0,0,1,11.84-2A4.9,4.9,0,0,1,166.46,217.9Zm45-2.32a39.14,39.14,0,0,1,15-7c2.1-.41,4.24-.71,6.42.23a2.79,2.79,0,0,1-.81,3.05,11.9,11.9,0,0,1-4.45,2.81,25.38,25.38,0,0,1-9.22,2c-2.38,0-4.77.06-7.32.1C211.25,216.23,211.24,215.74,211.46,215.58Zm53.76-41a9.17,9.17,0,0,1-1.94,3.2,22.39,22.39,0,0,1-4.22,3.21,41.14,41.14,0,0,1-10.17,4.21A143.73,143.73,0,0,1,217,190.11a7.6,7.6,0,0,1-1.5-.13c-.11,0-.2-.14-.67-.5,10.36-8.44,20.9-16,33.94-19.31a27,27,0,0,1,9.42-.83,14.44,14.44,0,0,1,5.78,1.82C265.5,172.07,265.9,172.91,265.22,174.63Z"/><path class="cls-1" d="M260.28,52.91a7,7,0,0,0,1.08-.53C272.82,40.54,277,25.59,279.5,9.94a7.09,7.09,0,0,0,0-1.22,8,8,0,0,0-5.88-7.67A22.15,22.15,0,0,0,262.19.52c-4.75,1.08-8.12,3.67-8.72,8.9-.66,5.85-1.57,11.69-1.91,17.56a37.82,37.82,0,0,0,3.7,19C256.49,48.47,257.71,51.05,260.28,52.91Z"/><path class="cls-1" d="M298.19,51.16A89.43,89.43,0,0,0,321.26,39a136.39,136.39,0,0,0,12.41-10.77c2.56-2.43,2.41-4.9.08-7.51a21,21,0,0,0-8.62-5.56c-3.71-1.36-7.21-1.05-10.22,1.7-3.75,3.42-7.66,6.7-11.11,10.4a54.53,54.53,0,0,0-11.29,17.93c-.84,2.22-1.91,4.45-1.29,7.88C294,52.32,296.13,51.91,298.19,51.16Z"/><path class="cls-1" d="M317.73,167.93c-6.6-4.89-14-7.54-22.36-5.48a10.27,10.27,0,0,0-6.94,4.94,35.32,35.32,0,0,0,1.73,3.14,90.36,90.36,0,0,0,17.1,19,95.9,95.9,0,0,0,9.09,6.15,9,9,0,0,0,2.82,1.09,2.59,2.59,0,0,0,3.11-1.35,13.18,13.18,0,0,0,1.33-4,36.32,36.32,0,0,0-2-17.44C320.76,171.8,319.55,169.28,317.73,167.93Z"/><path class="cls-1" d="M364.65,153.74c-.07-.61-.23-1.2-.44-2.23-3.15-7.78-8.34-13.94-17.44-15.67-5.38-1-10.81-1.86-16.25-2.45a53.36,53.36,0,0,0-9.11.13,10.22,10.22,0,0,0-6,2.71c-2.38,2.11-2.27,4.94.43,6.5A106.27,106.27,0,0,0,326.1,148c10.11,4.47,21,6.26,31.71,8.48a16.08,16.08,0,0,0,4.84-.11A2.55,2.55,0,0,0,364.65,153.74Z"/><path class="cls-1" d="M318.74,81.8a20,20,0,0,0-7.47,8.47A13.38,13.38,0,0,0,314,91.58c5.59,1,11.15,2.21,16.78,2.77a68.5,68.5,0,0,0,24.12-2.27c3.56-.93,4.67-3,3.43-6.38A22.44,22.44,0,0,0,351.28,76a9.79,9.79,0,0,0-8.52-2.27c-4.15.9-8.3,1.89-12.44,2.86A33.91,33.91,0,0,0,318.74,81.8Z"/></g></g></svg>